# xmcd
#
# Track frame offsets: 
#        150
#        11520
#        31627
#        33923
#        49861
#        51546
#        71004
#        75160
#        77394
#        99723
#        116498
#        130065
#        131038
#        138726
#        154577
#        156911
#        173161
#        187714
#        203478
#        223273
#        224933
#        240147
#        257770
#        276342
#        290545
#        315969
#        327576
#
# Disc length: 4565 seconds
#
# Revision: 0
# Processed by: cddbd v1.5.2PL0 Copyright (c) Steve Scherf et al.
# Submitted via: ExactAudioCopyFreeDBPlugin 1.0
#
DISCID=7e11d31b
DTITLE=HIFI - HistorHIFIque Mixtape
DYEAR=2007
DGENRE=
TTITLE0=Warrior - Inédit
TTITLE1=Certains MCs
TTITLE2=Interlude - Les Pays Du Sud
TTITLE3=HIFI - Ahmed Daye - 2 Bal - Si Mes Lyrics Pouvaient Tuer - Iné
TTITLE3=dit
TTITLE4=Interlude - Le Pouvoir Des Mots
TTITLE5=L'Elévation
TTITLE6=Gensi Feat. HIFI - Problème Dnas La Ville
TTITLE7=Interlude - A Qui La Faute
TTITLE8=HIFI - Diable Rouge - Ziko - Jedi - Pit - Lunatic - X-Men - Ti
TTITLE8=me Bomb Explose
TTITLE9=X-Men Feat. HIFI - J'Attaque Du Mic
TTITLE10=X-Men Feat. HIFI - Pendez Les
TTITLE11=Interlude - Ils Renient Leur Dieu
TTITLE12=Les Ennenmis De Mes Amis - Inédit
TTITLE13=HIFI Feat. Mc Lesly - Rehabilitation
TTITLE14=Interlude - La Liberté S'Eteint
TTITLE15=Suspects feat. HIFI - Par Tous Les Moyens Nécessaires - Inédi
TTITLE15=t
TTITLE16=Ali Feat. HIFI - Préviens Les Autres
TTITLE17=J'Anticipe
TTITLE18=Drame Quotidien - Original Version
TTITLE19=Interlude - Révolution
TTITLE20=Rad-G Feat. HIFI - Pris De Vitesse - Inédit
TTITLE21=Incontrolable - Original Version
TTITLE22=Comparativement - Inédit
TTITLE23=HIFI Feat. Mc Lesly - Tidiane Krys - Satisfaction
TTITLE24=Ahmed Daye - Passi - Arsenik - Oxmo - Pit - Stomy - Mon Père 
TTITLE24=Est Un Gangster
TTITLE25=Unité - Inédit
TTITLE26=Mes Rimes Sortent Du Coeur - Inédit
EXTD=
EXTT0=
EXTT1=
EXTT2=
EXTT3=
EXTT4=
EXTT5=
EXTT6=
EXTT7=
EXTT8=
EXTT9=
EXTT10=
EXTT11=
EXTT12=
EXTT13=
EXTT14=
EXTT15=
EXTT16=
EXTT17=
EXTT18=
EXTT19=
EXTT20=
EXTT21=
EXTT22=
EXTT23=
EXTT24=
EXTT25=
EXTT26=
PLAYORDER=
